<mxfile host="app.diagrams.net" modified="2024-04-15T20:46:44.281Z" agent="Mozilla/5.0 (Windows NT 10.0; Win64; x64) AppleWebKit/537.36 (KHTML, like Gecko) Chrome/123.0.0.0 Safari/537.36" etag="vBEpMWiZF-0OT_Xzps6A" version="24.2.5" type="github">
  <diagram name="Pagina-1" id="eg9MmAO8pj_6sEsnwFH7">
    <mxGraphModel dx="4327" dy="1857" grid="1" gridSize="10" guides="1" tooltips="1" connect="1" arrows="1" fold="1" page="1" pageScale="1" pageWidth="827" pageHeight="1169" math="0" shadow="0">
      <root>
        <mxCell id="0" />
        <mxCell id="1" parent="0" />
        <mxCell id="lFNXT7iOnSfMKGK9Vy3C-27" value="" style="group" vertex="1" connectable="0" parent="1">
          <mxGeometry x="480" y="589.9" width="1040" height="440" as="geometry" />
        </mxCell>
        <mxCell id="lFNXT7iOnSfMKGK9Vy3C-24" value="" style="rounded=1;whiteSpace=wrap;html=1;fillColor=none;" vertex="1" parent="lFNXT7iOnSfMKGK9Vy3C-27">
          <mxGeometry width="1040" height="400" as="geometry" />
        </mxCell>
        <mxCell id="lFNXT7iOnSfMKGK9Vy3C-26" style="edgeStyle=orthogonalEdgeStyle;rounded=0;orthogonalLoop=1;jettySize=auto;html=1;entryX=0.5;entryY=1;entryDx=0;entryDy=0;" edge="1" parent="lFNXT7iOnSfMKGK9Vy3C-27" source="lFNXT7iOnSfMKGK9Vy3C-18" target="lFNXT7iOnSfMKGK9Vy3C-19">
          <mxGeometry relative="1" as="geometry" />
        </mxCell>
        <mxCell id="lFNXT7iOnSfMKGK9Vy3C-18" value="" style="rounded=0;whiteSpace=wrap;html=1;fillColor=none;rotation=0;dashed=1;" vertex="1" parent="lFNXT7iOnSfMKGK9Vy3C-27">
          <mxGeometry x="40" y="200" width="960" height="160" as="geometry" />
        </mxCell>
        <mxCell id="lFNXT7iOnSfMKGK9Vy3C-15" style="edgeStyle=orthogonalEdgeStyle;rounded=0;orthogonalLoop=1;jettySize=auto;html=1;entryX=0;entryY=0.5;entryDx=0;entryDy=0;shape=link;" edge="1" parent="lFNXT7iOnSfMKGK9Vy3C-27" source="lFNXT7iOnSfMKGK9Vy3C-11" target="lFNXT7iOnSfMKGK9Vy3C-14">
          <mxGeometry relative="1" as="geometry" />
        </mxCell>
        <mxCell id="lFNXT7iOnSfMKGK9Vy3C-11" value="&lt;font style=&quot;font-size: 15px;&quot;&gt;BLOCK&lt;/font&gt;" style="rounded=1;whiteSpace=wrap;html=1;fillColor=#bababa;" vertex="1" parent="lFNXT7iOnSfMKGK9Vy3C-27">
          <mxGeometry x="80" y="240" width="160" height="80" as="geometry" />
        </mxCell>
        <mxCell id="lFNXT7iOnSfMKGK9Vy3C-12" value="&lt;font style=&quot;font-size: 15px;&quot;&gt;BLOCK&lt;/font&gt;" style="rounded=1;whiteSpace=wrap;html=1;fillColor=#BABABA;" vertex="1" parent="lFNXT7iOnSfMKGK9Vy3C-27">
          <mxGeometry x="800" y="240" width="160" height="80" as="geometry" />
        </mxCell>
        <mxCell id="lFNXT7iOnSfMKGK9Vy3C-17" style="edgeStyle=orthogonalEdgeStyle;rounded=0;orthogonalLoop=1;jettySize=auto;html=1;entryX=0;entryY=0.5;entryDx=0;entryDy=0;shape=link;" edge="1" parent="lFNXT7iOnSfMKGK9Vy3C-27" source="lFNXT7iOnSfMKGK9Vy3C-13" target="lFNXT7iOnSfMKGK9Vy3C-12">
          <mxGeometry relative="1" as="geometry" />
        </mxCell>
        <mxCell id="lFNXT7iOnSfMKGK9Vy3C-13" value="&lt;font style=&quot;font-size: 15px;&quot;&gt;BLOCK&lt;/font&gt;" style="rounded=1;whiteSpace=wrap;html=1;fillColor=#BABABA;" vertex="1" parent="lFNXT7iOnSfMKGK9Vy3C-27">
          <mxGeometry x="560" y="240" width="160" height="80" as="geometry" />
        </mxCell>
        <mxCell id="lFNXT7iOnSfMKGK9Vy3C-16" style="rounded=0;orthogonalLoop=1;jettySize=auto;html=1;entryX=0;entryY=0.5;entryDx=0;entryDy=0;shape=link;" edge="1" parent="lFNXT7iOnSfMKGK9Vy3C-27" source="lFNXT7iOnSfMKGK9Vy3C-14" target="lFNXT7iOnSfMKGK9Vy3C-13">
          <mxGeometry relative="1" as="geometry" />
        </mxCell>
        <mxCell id="lFNXT7iOnSfMKGK9Vy3C-14" value="&lt;font style=&quot;font-size: 15px;&quot;&gt;BLOCK&lt;/font&gt;" style="rounded=1;whiteSpace=wrap;html=1;fillColor=#BABABA;" vertex="1" parent="lFNXT7iOnSfMKGK9Vy3C-27">
          <mxGeometry x="320" y="240" width="160" height="80" as="geometry" />
        </mxCell>
        <mxCell id="lFNXT7iOnSfMKGK9Vy3C-19" value="&lt;font style=&quot;font-size: 15px;&quot;&gt;ETHEREUM VIRTUAL MACHINE&lt;/font&gt;" style="rounded=1;whiteSpace=wrap;html=1;fillColor=#a4d3ca;" vertex="1" parent="lFNXT7iOnSfMKGK9Vy3C-27">
          <mxGeometry x="400" y="40" width="240" height="80" as="geometry" />
        </mxCell>
        <mxCell id="lFNXT7iOnSfMKGK9Vy3C-21" style="rounded=0;orthogonalLoop=1;jettySize=auto;html=1;entryX=0;entryY=0.5;entryDx=0;entryDy=0;" edge="1" parent="lFNXT7iOnSfMKGK9Vy3C-27" source="iBhsGcctu8QogU5b9aej-7" target="lFNXT7iOnSfMKGK9Vy3C-19">
          <mxGeometry relative="1" as="geometry">
            <mxPoint x="250" y="40" as="targetPoint" />
          </mxGeometry>
        </mxCell>
        <mxCell id="lFNXT7iOnSfMKGK9Vy3C-23" value="" style="group" vertex="1" connectable="0" parent="lFNXT7iOnSfMKGK9Vy3C-27">
          <mxGeometry x="180" y="30" width="159.99999999999997" height="130" as="geometry" />
        </mxCell>
        <mxCell id="iBhsGcctu8QogU5b9aej-7" value="" style="image;aspect=fixed;perimeter=ellipsePerimeter;html=1;align=center;shadow=0;dashed=0;fontColor=#4277BB;labelBackgroundColor=default;fontSize=12;spacingTop=3;image=img/lib/ibm/blockchain/smart_contract.svg;container=0;" parent="lFNXT7iOnSfMKGK9Vy3C-23" vertex="1">
          <mxGeometry x="33.33000000000001" width="93.33333333333333" height="93.33333333333333" as="geometry" />
        </mxCell>
        <mxCell id="iBhsGcctu8QogU5b9aej-9" value="SMART CONTRACT" style="text;html=1;align=center;verticalAlign=middle;resizable=0;points=[];autosize=1;strokeColor=none;fillColor=none;fontSize=15;container=0;" parent="lFNXT7iOnSfMKGK9Vy3C-23" vertex="1">
          <mxGeometry y="100" width="160" height="30" as="geometry" />
        </mxCell>
        <mxCell id="lFNXT7iOnSfMKGK9Vy3C-25" value="&lt;font style=&quot;font-size: 15px;&quot;&gt;BLOCKCHAIN ETHEREUM&lt;/font&gt;" style="text;html=1;align=center;verticalAlign=middle;whiteSpace=wrap;rounded=0;" vertex="1" parent="lFNXT7iOnSfMKGK9Vy3C-27">
          <mxGeometry x="425" y="410" width="190" height="30" as="geometry" />
        </mxCell>
        <mxCell id="lFNXT7iOnSfMKGK9Vy3C-35" value="" style="group" vertex="1" connectable="0" parent="1">
          <mxGeometry x="-700" y="40.00000000000001" width="360" height="250.70999999999998" as="geometry" />
        </mxCell>
        <mxCell id="iBhsGcctu8QogU5b9aej-15" value="" style="group" parent="lFNXT7iOnSfMKGK9Vy3C-35" vertex="1" connectable="0">
          <mxGeometry width="118" height="250.70999999999998" as="geometry" />
        </mxCell>
        <mxCell id="iBhsGcctu8QogU5b9aej-4" value="" style="image;aspect=fixed;perimeter=ellipsePerimeter;html=1;align=center;shadow=0;dashed=0;spacingTop=3;image=img/lib/active_directory/generic_server.svg;direction=east;flipV=0;flipH=1;" parent="iBhsGcctu8QogU5b9aej-15" vertex="1">
          <mxGeometry width="118" height="210.71" as="geometry" />
        </mxCell>
        <mxCell id="iBhsGcctu8QogU5b9aej-11" value="&lt;font style=&quot;font-size: 18px;&quot;&gt;SERVER&lt;/font&gt;" style="text;html=1;align=center;verticalAlign=middle;resizable=0;points=[];autosize=1;strokeColor=none;fillColor=none;fontSize=15;" parent="iBhsGcctu8QogU5b9aej-15" vertex="1">
          <mxGeometry x="9" y="210.70999999999998" width="100" height="40" as="geometry" />
        </mxCell>
        <mxCell id="lFNXT7iOnSfMKGK9Vy3C-29" value="" style="group" vertex="1" connectable="0" parent="lFNXT7iOnSfMKGK9Vy3C-35">
          <mxGeometry x="250" y="39.99999999999999" width="110" height="140" as="geometry" />
        </mxCell>
        <mxCell id="lFNXT7iOnSfMKGK9Vy3C-30" value="ORACLE" style="text;html=1;align=center;verticalAlign=middle;resizable=0;points=[];autosize=1;strokeColor=none;fillColor=none;" vertex="1" parent="lFNXT7iOnSfMKGK9Vy3C-29">
          <mxGeometry x="28.601206801974726" y="115.29411764705883" width="70" height="30" as="geometry" />
        </mxCell>
        <mxCell id="lFNXT7iOnSfMKGK9Vy3C-31" value="" style="aspect=fixed;sketch=0;html=1;dashed=0;whitespace=wrap;fillColor=#2875E2;strokeColor=#ffffff;points=[[0.005,0.63,0],[0.1,0.2,0],[0.9,0.2,0],[0.5,0,0],[0.995,0.63,0],[0.72,0.99,0],[0.5,1,0],[0.28,0.99,0]];shape=mxgraph.kubernetes.icon2;prIcon=api" vertex="1" parent="lFNXT7iOnSfMKGK9Vy3C-29">
          <mxGeometry width="104.85228758169934" height="100.65359477124183" as="geometry" />
        </mxCell>
        <mxCell id="lFNXT7iOnSfMKGK9Vy3C-32" style="rounded=0;orthogonalLoop=1;jettySize=auto;html=1;entryX=0.005;entryY=0.63;entryDx=0;entryDy=0;entryPerimeter=0;" edge="1" parent="lFNXT7iOnSfMKGK9Vy3C-35" source="iBhsGcctu8QogU5b9aej-4" target="lFNXT7iOnSfMKGK9Vy3C-31">
          <mxGeometry relative="1" as="geometry" />
        </mxCell>
        <mxCell id="lFNXT7iOnSfMKGK9Vy3C-39" value="" style="group" vertex="1" connectable="0" parent="1">
          <mxGeometry x="-710" y="430" width="370.0022875816993" height="210.77999999999997" as="geometry" />
        </mxCell>
        <mxCell id="lFNXT7iOnSfMKGK9Vy3C-5" value="" style="aspect=fixed;sketch=0;html=1;dashed=0;whitespace=wrap;fillColor=#2875E2;strokeColor=#ffffff;points=[[0.005,0.63,0],[0.1,0.2,0],[0.9,0.2,0],[0.5,0,0],[0.995,0.63,0],[0.72,0.99,0],[0.5,1,0],[0.28,0.99,0]];shape=mxgraph.kubernetes.icon2;prIcon=api;container=0;" vertex="1" parent="lFNXT7iOnSfMKGK9Vy3C-39">
          <mxGeometry x="265.15" y="20" width="104.85228758169934" height="100.65359477124183" as="geometry" />
        </mxCell>
        <mxCell id="lFNXT7iOnSfMKGK9Vy3C-37" value="" style="group" vertex="1" connectable="0" parent="lFNXT7iOnSfMKGK9Vy3C-39">
          <mxGeometry width="155" height="210.77999999999997" as="geometry" />
        </mxCell>
        <mxCell id="iBhsGcctu8QogU5b9aej-5" value="" style="image;aspect=fixed;perimeter=ellipsePerimeter;html=1;align=center;shadow=0;dashed=0;spacingTop=3;image=img/lib/active_directory/laptop_client.svg;flipV=0;flipH=1;container=0;" parent="lFNXT7iOnSfMKGK9Vy3C-37" vertex="1">
          <mxGeometry width="155" height="172.22" as="geometry" />
        </mxCell>
        <mxCell id="iBhsGcctu8QogU5b9aej-10" value="CLIENT" style="text;html=1;align=center;verticalAlign=middle;resizable=0;points=[];autosize=1;strokeColor=none;fillColor=none;fontSize=15;container=0;" parent="lFNXT7iOnSfMKGK9Vy3C-37" vertex="1">
          <mxGeometry x="37.5" y="180.77999999999997" width="80" height="30" as="geometry" />
        </mxCell>
        <mxCell id="lFNXT7iOnSfMKGK9Vy3C-38" style="rounded=0;orthogonalLoop=1;jettySize=auto;html=1;entryX=0.005;entryY=0.63;entryDx=0;entryDy=0;entryPerimeter=0;" edge="1" parent="lFNXT7iOnSfMKGK9Vy3C-39" source="iBhsGcctu8QogU5b9aej-5" target="lFNXT7iOnSfMKGK9Vy3C-5">
          <mxGeometry relative="1" as="geometry" />
        </mxCell>
        <mxCell id="lFNXT7iOnSfMKGK9Vy3C-46" value="" style="group" vertex="1" connectable="0" parent="1">
          <mxGeometry x="-721.4" y="704.51" width="370.0022875816993" height="210.77999999999997" as="geometry" />
        </mxCell>
        <mxCell id="lFNXT7iOnSfMKGK9Vy3C-47" value="" style="aspect=fixed;sketch=0;html=1;dashed=0;whitespace=wrap;fillColor=#2875E2;strokeColor=#ffffff;points=[[0.005,0.63,0],[0.1,0.2,0],[0.9,0.2,0],[0.5,0,0],[0.995,0.63,0],[0.72,0.99,0],[0.5,1,0],[0.28,0.99,0]];shape=mxgraph.kubernetes.icon2;prIcon=api;container=0;" vertex="1" parent="lFNXT7iOnSfMKGK9Vy3C-46">
          <mxGeometry x="265.15" y="20" width="104.85228758169934" height="100.65359477124183" as="geometry" />
        </mxCell>
        <mxCell id="lFNXT7iOnSfMKGK9Vy3C-48" value="" style="group" vertex="1" connectable="0" parent="lFNXT7iOnSfMKGK9Vy3C-46">
          <mxGeometry width="155" height="210.77999999999997" as="geometry" />
        </mxCell>
        <mxCell id="lFNXT7iOnSfMKGK9Vy3C-49" value="" style="image;aspect=fixed;perimeter=ellipsePerimeter;html=1;align=center;shadow=0;dashed=0;spacingTop=3;image=img/lib/active_directory/laptop_client.svg;flipV=0;flipH=1;container=0;" vertex="1" parent="lFNXT7iOnSfMKGK9Vy3C-48">
          <mxGeometry width="155" height="172.22" as="geometry" />
        </mxCell>
        <mxCell id="lFNXT7iOnSfMKGK9Vy3C-50" value="CLIENT" style="text;html=1;align=center;verticalAlign=middle;resizable=0;points=[];autosize=1;strokeColor=none;fillColor=none;fontSize=15;container=0;" vertex="1" parent="lFNXT7iOnSfMKGK9Vy3C-48">
          <mxGeometry x="37.5" y="180.77999999999997" width="80" height="30" as="geometry" />
        </mxCell>
        <mxCell id="lFNXT7iOnSfMKGK9Vy3C-51" style="rounded=0;orthogonalLoop=1;jettySize=auto;html=1;entryX=0.005;entryY=0.63;entryDx=0;entryDy=0;entryPerimeter=0;" edge="1" parent="lFNXT7iOnSfMKGK9Vy3C-46" source="lFNXT7iOnSfMKGK9Vy3C-49" target="lFNXT7iOnSfMKGK9Vy3C-47">
          <mxGeometry relative="1" as="geometry" />
        </mxCell>
        <mxCell id="lFNXT7iOnSfMKGK9Vy3C-6" value="ORACLE" style="text;html=1;align=center;verticalAlign=middle;resizable=0;points=[];autosize=1;strokeColor=none;fillColor=none;container=0;" vertex="1" parent="lFNXT7iOnSfMKGK9Vy3C-46">
          <mxGeometry x="282.5712068019747" y="120.6541176470588" width="70" height="30" as="geometry" />
        </mxCell>
        <mxCell id="lFNXT7iOnSfMKGK9Vy3C-58" value="" style="group" vertex="1" connectable="0" parent="1">
          <mxGeometry x="-721.4" y="1070" width="370.0022875816993" height="210.77999999999997" as="geometry" />
        </mxCell>
        <mxCell id="lFNXT7iOnSfMKGK9Vy3C-59" value="" style="aspect=fixed;sketch=0;html=1;dashed=0;whitespace=wrap;fillColor=#2875E2;strokeColor=#ffffff;points=[[0.005,0.63,0],[0.1,0.2,0],[0.9,0.2,0],[0.5,0,0],[0.995,0.63,0],[0.72,0.99,0],[0.5,1,0],[0.28,0.99,0]];shape=mxgraph.kubernetes.icon2;prIcon=api;container=0;" vertex="1" parent="lFNXT7iOnSfMKGK9Vy3C-58">
          <mxGeometry x="265.15" y="20" width="104.85228758169934" height="100.65359477124183" as="geometry" />
        </mxCell>
        <mxCell id="lFNXT7iOnSfMKGK9Vy3C-60" value="" style="group" vertex="1" connectable="0" parent="lFNXT7iOnSfMKGK9Vy3C-58">
          <mxGeometry width="155" height="210.77999999999997" as="geometry" />
        </mxCell>
        <mxCell id="lFNXT7iOnSfMKGK9Vy3C-61" value="" style="image;aspect=fixed;perimeter=ellipsePerimeter;html=1;align=center;shadow=0;dashed=0;spacingTop=3;image=img/lib/active_directory/laptop_client.svg;flipV=0;flipH=1;container=0;" vertex="1" parent="lFNXT7iOnSfMKGK9Vy3C-60">
          <mxGeometry width="155" height="172.22" as="geometry" />
        </mxCell>
        <mxCell id="lFNXT7iOnSfMKGK9Vy3C-62" value="CLIENT" style="text;html=1;align=center;verticalAlign=middle;resizable=0;points=[];autosize=1;strokeColor=none;fillColor=none;fontSize=15;container=0;" vertex="1" parent="lFNXT7iOnSfMKGK9Vy3C-60">
          <mxGeometry x="37.5" y="180.77999999999997" width="80" height="30" as="geometry" />
        </mxCell>
        <mxCell id="lFNXT7iOnSfMKGK9Vy3C-63" style="rounded=0;orthogonalLoop=1;jettySize=auto;html=1;entryX=0.005;entryY=0.63;entryDx=0;entryDy=0;entryPerimeter=0;" edge="1" parent="lFNXT7iOnSfMKGK9Vy3C-58" source="lFNXT7iOnSfMKGK9Vy3C-61" target="lFNXT7iOnSfMKGK9Vy3C-59">
          <mxGeometry relative="1" as="geometry" />
        </mxCell>
        <mxCell id="lFNXT7iOnSfMKGK9Vy3C-75" value="ORACLE" style="text;html=1;align=center;verticalAlign=middle;resizable=0;points=[];autosize=1;strokeColor=none;fillColor=none;container=0;" vertex="1" parent="lFNXT7iOnSfMKGK9Vy3C-58">
          <mxGeometry x="282.5712068019747" y="130.00411764705882" width="70" height="30" as="geometry" />
        </mxCell>
        <mxCell id="lFNXT7iOnSfMKGK9Vy3C-64" value="" style="group" vertex="1" connectable="0" parent="1">
          <mxGeometry x="-730" y="1400" width="370.0022875816993" height="210.77999999999997" as="geometry" />
        </mxCell>
        <mxCell id="lFNXT7iOnSfMKGK9Vy3C-65" value="" style="aspect=fixed;sketch=0;html=1;dashed=0;whitespace=wrap;fillColor=#2875E2;strokeColor=#ffffff;points=[[0.005,0.63,0],[0.1,0.2,0],[0.9,0.2,0],[0.5,0,0],[0.995,0.63,0],[0.72,0.99,0],[0.5,1,0],[0.28,0.99,0]];shape=mxgraph.kubernetes.icon2;prIcon=api;container=0;" vertex="1" parent="lFNXT7iOnSfMKGK9Vy3C-64">
          <mxGeometry x="265.15" y="20" width="104.85228758169934" height="100.65359477124183" as="geometry" />
        </mxCell>
        <mxCell id="lFNXT7iOnSfMKGK9Vy3C-66" value="" style="group" vertex="1" connectable="0" parent="lFNXT7iOnSfMKGK9Vy3C-64">
          <mxGeometry width="155" height="210.77999999999997" as="geometry" />
        </mxCell>
        <mxCell id="lFNXT7iOnSfMKGK9Vy3C-67" value="" style="image;aspect=fixed;perimeter=ellipsePerimeter;html=1;align=center;shadow=0;dashed=0;spacingTop=3;image=img/lib/active_directory/laptop_client.svg;flipV=0;flipH=1;container=0;" vertex="1" parent="lFNXT7iOnSfMKGK9Vy3C-66">
          <mxGeometry width="155" height="172.22" as="geometry" />
        </mxCell>
        <mxCell id="lFNXT7iOnSfMKGK9Vy3C-68" value="CLIENT" style="text;html=1;align=center;verticalAlign=middle;resizable=0;points=[];autosize=1;strokeColor=none;fillColor=none;fontSize=15;container=0;" vertex="1" parent="lFNXT7iOnSfMKGK9Vy3C-66">
          <mxGeometry x="37.5" y="180.77999999999997" width="80" height="30" as="geometry" />
        </mxCell>
        <mxCell id="lFNXT7iOnSfMKGK9Vy3C-69" style="rounded=0;orthogonalLoop=1;jettySize=auto;html=1;entryX=0.005;entryY=0.63;entryDx=0;entryDy=0;entryPerimeter=0;" edge="1" parent="lFNXT7iOnSfMKGK9Vy3C-64" source="lFNXT7iOnSfMKGK9Vy3C-67" target="lFNXT7iOnSfMKGK9Vy3C-65">
          <mxGeometry relative="1" as="geometry" />
        </mxCell>
        <mxCell id="lFNXT7iOnSfMKGK9Vy3C-83" value="ORACLE" style="text;html=1;align=center;verticalAlign=middle;resizable=0;points=[];autosize=1;strokeColor=none;fillColor=none;container=0;" vertex="1" parent="lFNXT7iOnSfMKGK9Vy3C-64">
          <mxGeometry x="282.5712068019747" y="130.00411764705882" width="70" height="30" as="geometry" />
        </mxCell>
        <mxCell id="lFNXT7iOnSfMKGK9Vy3C-84" value="" style="endArrow=classic;startArrow=classic;html=1;rounded=0;exitX=0.995;exitY=0.63;exitDx=0;exitDy=0;exitPerimeter=0;entryX=0;entryY=0.5;entryDx=0;entryDy=0;" edge="1" parent="1" source="lFNXT7iOnSfMKGK9Vy3C-59" target="iBhsGcctu8QogU5b9aej-7">
          <mxGeometry width="50" height="50" relative="1" as="geometry">
            <mxPoint x="-10" y="830" as="sourcePoint" />
            <mxPoint x="40" y="780" as="targetPoint" />
          </mxGeometry>
        </mxCell>
        <mxCell id="lFNXT7iOnSfMKGK9Vy3C-85" value="" style="endArrow=classic;startArrow=classic;html=1;rounded=0;exitX=0.995;exitY=0.63;exitDx=0;exitDy=0;exitPerimeter=0;entryX=0;entryY=0.5;entryDx=0;entryDy=0;" edge="1" parent="1" source="lFNXT7iOnSfMKGK9Vy3C-47" target="iBhsGcctu8QogU5b9aej-7">
          <mxGeometry width="50" height="50" relative="1" as="geometry">
            <mxPoint x="-10" y="830" as="sourcePoint" />
            <mxPoint x="40" y="780" as="targetPoint" />
          </mxGeometry>
        </mxCell>
        <mxCell id="lFNXT7iOnSfMKGK9Vy3C-86" value="" style="endArrow=classic;startArrow=classic;html=1;rounded=0;exitX=0.995;exitY=0.63;exitDx=0;exitDy=0;exitPerimeter=0;entryX=0;entryY=0.5;entryDx=0;entryDy=0;" edge="1" parent="1" source="lFNXT7iOnSfMKGK9Vy3C-5" target="iBhsGcctu8QogU5b9aej-7">
          <mxGeometry width="50" height="50" relative="1" as="geometry">
            <mxPoint x="-342" y="755" as="sourcePoint" />
            <mxPoint x="703" y="634" as="targetPoint" />
          </mxGeometry>
        </mxCell>
        <mxCell id="lFNXT7iOnSfMKGK9Vy3C-87" value="" style="endArrow=classic;startArrow=classic;html=1;rounded=0;exitX=0.995;exitY=0.63;exitDx=0;exitDy=0;exitPerimeter=0;entryX=0;entryY=0.5;entryDx=0;entryDy=0;" edge="1" parent="1" source="lFNXT7iOnSfMKGK9Vy3C-65" target="iBhsGcctu8QogU5b9aej-7">
          <mxGeometry width="50" height="50" relative="1" as="geometry">
            <mxPoint x="-10" y="1230" as="sourcePoint" />
            <mxPoint x="40" y="1180" as="targetPoint" />
            <Array as="points">
              <mxPoint x="160" y="1010" />
            </Array>
          </mxGeometry>
        </mxCell>
        <mxCell id="lFNXT7iOnSfMKGK9Vy3C-88" value="" style="endArrow=classic;startArrow=classic;html=1;rounded=0;exitX=0.995;exitY=0.63;exitDx=0;exitDy=0;exitPerimeter=0;entryX=0;entryY=0.5;entryDx=0;entryDy=0;" edge="1" parent="1" source="lFNXT7iOnSfMKGK9Vy3C-31" target="iBhsGcctu8QogU5b9aej-7">
          <mxGeometry width="50" height="50" relative="1" as="geometry">
            <mxPoint x="-10" y="630" as="sourcePoint" />
            <mxPoint x="40" y="580" as="targetPoint" />
          </mxGeometry>
        </mxCell>
      </root>
    </mxGraphModel>
  </diagram>
</mxfile>
